<?xml version="1.0"?>
<svg xmlns="http://www.w3.org/2000/svg" xmlns:xlink="http://www.w3.org/1999/xlink" viewBox="0 0 512 512" width="512" height="512"><defs><linearGradient id="linear-gradient" x1="52.769" y1="480.083" x2="478.084" y2="54.768" gradientUnits="userSpaceOnUse"><stop offset="0" stop-color="#fff"/><stop offset="0.03" stop-color="#41dfd0"/><stop offset="1" stop-color="#ee83ef"/></linearGradient></defs><g id="gradient"><path d="M80.733,214.729c-2.2,11.046.483,24.154,10.187,33.27-9.7,9.113-12.385,22.224-10.187,33.272,2.2,11.065,9.71,22.165,22.192,26.86a34.425,34.425,0,0,0-3.008,15.736A37.885,37.885,0,0,0,112,349.538V352H40a8,8,0,0,0-6.656,12.438L62.385,408,33.344,451.562A8,8,0,0,0,40,464h80a8,8,0,0,0,8-8v-8H368v8a8,8,0,0,0,8,8h81.707a8,8,0,0,0,6.547-12.6l-30.561-43.519,28.963-43.445A8,8,0,0,0,456,352H384v-2.469a37.392,37.392,0,0,0,12.108-26.387,34.451,34.451,0,0,0-3.035-15.012c12.48-4.7,19.994-15.8,22.194-26.861,2.2-11.046-.483-24.154-10.187-33.27,9.7-9.113,12.385-22.224,10.187-33.272s-9.691-22.135-22.142-26.842c5.474-12.132,2.936-25.27-3.323-34.637s-17.45-16.758-30.728-16.338c.41-13.3-6.962-24.458-16.325-30.714s-22.515-8.8-34.639-3.328c-4.708-12.448-15.791-19.94-26.838-22.138S257.117,81.216,248,90.92c-9.114-9.7-22.225-12.383-33.274-10.188s-22.134,9.692-26.84,22.143c-12.131-5.473-25.271-2.936-34.637,3.323s-16.754,17.446-16.339,30.728c-13.282-.405-24.459,6.962-30.714,16.324s-8.8,22.517-3.328,34.64C90.424,192.6,82.93,203.682,80.733,214.729ZM112,448H54.948l23.708-35.562a8,8,0,0,0,0-8.876L54.948,368H112Zm16-16V384H280a8,8,0,0,0,0-16H128V352H368v16H312a8,8,0,0,0,0,16h56v48Zm16-184a104,104,0,1,1,159.43,88H192.569A103.248,103.248,0,0,1,144,248ZM441.052,368l-23.708,35.562a8,8,0,0,0,.109,9.036l24.86,35.4H384V368ZM96.425,217.85c1.5-7.542,7.594-16.311,19.836-16.311h.132a8,8,0,0,0,5.732-13.709c-8.807-8.68-6.917-19.264-2.624-25.69s13.349-12.222,24.739-7.407l.119.049a8,8,0,0,0,10.417-10.438c-.014-.035-.028-.07-.043-.1-4.815-11.39.981-20.445,7.407-24.739s17.01-6.183,25.743,2.677a8,8,0,0,0,13.656-5.757c-.077-12.348,8.736-18.489,16.311-20s18.081.8,22.738,12.275a8,8,0,0,0,14.831-.019c4.65-11.458,15.149-13.764,22.731-12.256s16.375,7.638,16.311,19.969a8,8,0,0,0,13.709,5.731c8.679-8.807,19.264-6.918,25.69-2.624s12.222,13.349,7.407,24.739c-.015.034-.035.085-.049.119a8,8,0,0,0,10.438,10.417l.1-.043c11.39-4.816,20.445.981,24.739,7.407s6.183,17.01-2.677,25.743a8,8,0,0,0,5.672,13.657h.064c12.377-.08,18.509,8.731,20.017,16.31s-.8,18.081-12.275,22.738a8,8,0,0,0,.019,14.831c11.458,4.65,13.764,15.151,12.256,22.731-1.5,7.542-7.594,16.311-19.836,16.311h-.261a8,8,0,0,0-5.6,13.71,19.534,19.534,0,0,1,6.238,14.579A21.487,21.487,0,0,1,374.863,336H329.555a120.1,120.1,0,1,0-163.11,0H121.134a21.463,21.463,0,0,1-5.234-12.857c-.25-5.535,1.9-10.712,6.278-15.026a8,8,0,0,0-5.672-13.657h-.245c-12.24,0-18.336-8.769-19.836-16.311-1.508-7.58.8-18.081,12.275-22.738a8,8,0,0,0-.019-14.831C97.223,235.931,94.917,225.43,96.425,217.85ZM276,272h-4V176a8,8,0,0,0-8-8H232a8,8,0,0,0-5.657,2.343A220.985,220.985,0,0,1,192.735,197.9l-5.173,3.449a8,8,0,0,0-2.218,11.094l16,24a8,8,0,0,0,11.094,2.218L224,230.948V272h-4a20.023,20.023,0,0,0-20,20v20a8,8,0,0,0,8,8h80a8,8,0,0,0,8-8V292A20.023,20.023,0,0,0,276,272Zm4,32H216V292a4,4,0,0,1,4-4h12a8,8,0,0,0,8-8V216a8,8,0,0,0-12.438-6.656l-17.343,11.562-7.129-10.693A237.128,237.128,0,0,0,235.28,184H256v96a8,8,0,0,0,8,8h12a4,4,0,0,1,4,4ZM413.359,40V24a8,8,0,0,1,16,0V40a8,8,0,0,1-16,0ZM379.79,40a8,8,0,0,1,10.928-2.928l13.856,8a8,8,0,1,1-8,13.856l-13.856-8A8,8,0,0,1,379.79,40Zm0,48a8,8,0,0,1,2.928-10.928l13.856-8a8,8,0,1,1,8,13.856l-13.856,8A8,8,0,0,1,379.79,88Zm33.569,16V88a8,8,0,0,1,16,0v16a8,8,0,0,1-16,0Zm21.856-32a8,8,0,0,1,10.929-2.928l13.856,8a8,8,0,1,1-8,13.856l-13.856-8A8,8,0,0,1,435.215,72Zm0-16a8,8,0,0,1,2.929-10.928l13.856-8a8,8,0,1,1,8,13.856l-13.856,8A8,8,0,0,1,435.215,56Zm-391.5,68.8V112a8,8,0,0,1,16,0v12.8a8,8,0,1,1-16,0ZM17.072,124A8,8,0,0,1,28,121.072l11.085,6.4a8,8,0,1,1-8,13.856L20,134.928A8,8,0,0,1,17.072,124Zm0,40A8,8,0,0,1,20,153.072l11.085-6.4a8,8,0,0,1,8,13.856L28,166.928A8,8,0,0,1,17.072,164Zm26.641,12V163.2a8,8,0,0,1,16,0V176a8,8,0,0,1-16,0Zm17.7-26.4a8,8,0,0,1,10.928-2.928l11.086,6.4a8,8,0,1,1-8,13.856l-11.086-6.4A8,8,0,0,1,61.412,149.6Zm0-11.2a8,8,0,0,1,2.928-10.928l11.086-6.4a8,8,0,1,1,8,13.856l-11.086,6.4A8,8,0,0,1,61.412,138.4ZM460.287,248a8,8,0,0,1,8,8v12.8a8,8,0,0,1-16,0V256A8,8,0,0,1,460.287,248Zm-23.713,17.072,11.086,6.4a8,8,0,1,1-8,13.856l-11.086-6.4a8,8,0,0,1,8-13.856ZM450.588,293.6a8,8,0,0,1-2.928,10.928l-11.086,6.4a8,8,0,1,1-8-13.856l11.086-6.4A8,8,0,0,1,450.588,293.6Zm17.7,13.6V320a8,8,0,0,1-16,0V307.2a8,8,0,0,1,16,0Zm26.641.8A8,8,0,0,1,484,310.928l-11.085-6.4a8,8,0,0,1,8-13.856l11.085,6.4A8,8,0,0,1,494.928,308Zm0-40A8,8,0,0,1,492,278.928l-11.085,6.4a8,8,0,1,1-8-13.856l11.085-6.4A8,8,0,0,1,494.928,268Z" style="fill:url(#linear-gradient)"/></g></svg>
